{
date = "2013-05-07 17:01:52 +0000";
designer = "Shinji Pons";
designerURL = www.shinjipons.com;
familyName = "Modulo 24";
featurePrefixes = (
{
automatic = 1;
code = "languagesystem DFLT dflt;\012languagesystem latn dflt;\012";
name = Languagesystems;
}
);
fontMaster = (
{
alignmentZones = (
"{1280, 10}",
"{0, -10}"
);
ascender = 1280;
capHeight = 1280;
customParameters = (
{
name = familyName;
value = "Modulo 24";
}
);
descender = 0;
guideLines = (
{
position = "{1540, 760}";
},
{
angle = 90;
position = "{320, -180}";
},
{
angle = 90;
position = "{600, -80}";
},
{
position = "{1520, 1040}";
},
{
angle = 90;
position = "{80, -140}";
},
{
angle = 90;
position = "{840, -80}";
},
{
position = "{1520, 240}";
},
{
position = "{1540, 520}";
},
{
angle = 90;
position = "{1360, -100}";
},
{
angle = 90;
position = "{1120, -60}";
}
);
horizontalStems = (
240
);
id = "940E2F63-624A-4C3D-A909-721782B4CF41";
verticalStems = (
240
);
weightValue = 24;
widthValue = 128;
xHeight = 1280;
}
);
glyphs = (
{
glyphname = A;
lastChange = "2014-01-05 15:10:29 +0000";
layers = (
{
guideLines = (
{
position = "{998, 654}";
showMeasurement = 1;
}
);
layerId = "940E2F63-624A-4C3D-A909-721782B4CF41";
name = Regular;
paths = (
{
closed = 1;
nodes = (
"320 1280 LINE",
"80 1040 LINE",
"1120 1040 LINE",
"1120 240 LINE",
"320 240 LINE",
"320 520 LINE",
"840 520 LINE",
"600 760 LINE",
"320 760 LINE",
"80 520 LINE",
"80 240 LINE",
"320 0 LINE",
"1120 0 LINE",
"1360 240 LINE",
"1360 1040 LINE",
"1120 1280 LINE"
);
}
);
width = 1440;
}
);
unicode = 0041;
},
{
glyphname = B;
lastChange = "2014-01-05 15:10:29 +0000";
layers = (
{
layerId = "940E2F63-624A-4C3D-A909-721782B4CF41";
name = Regular;
paths = (
{
closed = 1;
nodes = (
"320 1280 LINE",
"80 1040 LINE",
"80 240 LINE",
"320 0 LINE",
"320 1040 LINE",
"1120 1040 LINE",
"1120 760 LINE",
"600 760 LINE",
"840 520 LINE",
"1120 520 LINE",
"1120 240 LINE",
"600 240 LINE",
"840 0 LINE",
"1120 0 LINE",
"1360 240 LINE",
"1360 1040 LINE",
"1120 1280 LINE"
);
}
);
width = 1440;
}
);
unicode = 0042;
},
{
glyphname = C;
lastChange = "2014-01-05 15:10:29 +0000";
layers = (
{
layerId = "940E2F63-624A-4C3D-A909-721782B4CF41";
name = Regular;
paths = (
{
closed = 1;
nodes = (
"320 1280 LINE",
"80 1040 LINE",
"80 240 LINE",
"320 0 LINE",
"1120 0 LINE",
"1360 240 LINE",
"320 240 LINE",
"320 1040 LINE",
"1360 1040 LINE",
"1120 1280 LINE"
);
}
);
width = 1440;
}
);
unicode = 0043;
},
{
glyphname = D;
lastChange = "2014-01-05 15:10:29 +0000";
layers = (
{
layerId = "940E2F63-624A-4C3D-A909-721782B4CF41";
name = Regular;
paths = (
{
closed = 1;
nodes = (
"320 1280 LINE",
"80 1040 LINE",
"1120 1040 LINE",
"1120 240 LINE",
"320 240 LINE",
"320 760 LINE",
"80 520 LINE",
"80 240 LINE",
"320 0 LINE",
"1120 0 LINE",
"1360 240 LINE",
"1360 1040 LINE",
"1120 1280 LINE"
);
}
);
width = 1440;
}
);
unicode = 0044;
},
{
glyphname = E;
lastChange = "2014-01-05 15:10:29 +0000";
layers = (
{
layerId = "940E2F63-624A-4C3D-A909-721782B4CF41";
name = Regular;
paths = (
{
closed = 1;
nodes = (
"840 1280 LINE",
"600 1040 LINE",
"1120 1040 LINE",
"1120 760 LINE",
"320 760 LINE",
"320 1280 LINE",
"80 1040 LINE",
"80 240 LINE",
"320 0 LINE",
"1120 0 LINE",
"1360 240 LINE",
"320 240 LINE",
"320 520 LINE",
"1120 520 LINE",
"1360 760 LINE",
"1360 1040 LINE",
"1120 1280 LINE"
);
}
);
width = 1440;
}
);
unicode = 0045;
},
{
glyphname = F;
lastChange = "2014-01-05 15:10:29 +0000";
layers = (
{
layerId = "940E2F63-624A-4C3D-A909-721782B4CF41";
name = Regular;
paths = (
{
closed = 1;
nodes = (
"320 1280 LINE",
"80 1040 LINE",
"80 240 LINE",
"320 0 LINE",
"320 520 LINE",
"1120 520 LINE",
"1360 760 LINE",
"320 760 LINE",
"320 1040 LINE",
"1360 1040 LINE",
"1120 1280 LINE"
);
}
);
width = 1440;
}
);
unicode = 0046;
},
{
glyphname = H;
lastChange = "2014-01-05 15:10:29 +0000";
layers = (
{
layerId = "940E2F63-624A-4C3D-A909-721782B4CF41";
name = Regular;
paths = (
{
closed = 1;
nodes = (
"1120 760 LINE",
"320 760 LINE",
"320 1280 LINE",
"80 1040 LINE",
"80 240 LINE",
"320 0 LINE",
"320 520 LINE",
"1120 520 LINE",
"1120 0 LINE",
"1360 240 LINE",
"1360 1040 LINE",
"1120 1280 LINE"
);
}
);
width = 1440;
}
);
unicode = 0048;
},
{
glyphname = J;
lastChange = "2014-01-05 15:10:29 +0000";
layers = (
{
layerId = "940E2F63-624A-4C3D-A909-721782B4CF41";
name = Regular;
paths = (
{
closed = 1;
nodes = (
"840 1280 LINE",
"600 1040 LINE",
"1120 1040 LINE",
"1120 240 LINE",
"80 240 LINE",
"320 0 LINE",
"1120 0 LINE",
"1360 240 LINE",
"1360 1040 LINE",
"1120 1280 LINE"
);
}
);
width = 1440;
}
);
unicode = 004A;
},
{
glyphname = K;
lastChange = "2014-01-05 15:10:29 +0000";
layers = (
{
layerId = "940E2F63-624A-4C3D-A909-721782B4CF41";
name = Regular;
paths = (
{
closed = 1;
nodes = (
"840 1280 LINE",
"600 1040 LINE",
"600 760 LINE",
"320 760 LINE",
"320 1280 LINE",
"80 1040 LINE",
"80 240 LINE",
"320 0 LINE",
"320 520 LINE",
"1120 520 LINE",
"1120 0 LINE",
"1360 240 LINE",
"1360 520 LINE",
"1120 760 LINE",
"840 760 LINE",
"840 1040 LINE",
"1360 1040 LINE",
"1120 1280 LINE"
);
}
);
width = 1440;
}
);
unicode = 004B;
},
{
glyphname = L;
lastChange = "2014-01-05 15:10:29 +0000";
layers = (
{
layerId = "940E2F63-624A-4C3D-A909-721782B4CF41";
name = Regular;
paths = (
{
closed = 1;
nodes = (
"80 1040 LINE",
"80 240 LINE",
"320 0 LINE",
"1120 0 LINE",
"1360 240 LINE",
"320 240 LINE",
"320 1280 LINE"
);
}
);
width = 1440;
}
);
unicode = 004C;
},
{
glyphname = M;
lastChange = "2014-01-05 15:10:29 +0000";
layers = (
{
layerId = "940E2F63-624A-4C3D-A909-721782B4CF41";
name = Regular;
paths = (
{
closed = 1;
nodes = (
"320 1280 LINE",
"80 1040 LINE",
"80 240 LINE",
"320 0 LINE",
"320 1040 LINE",
"600 1040 LINE",
"600 240 LINE",
"840 0 LINE",
"840 1040 LINE",
"1120 1040 LINE",
"1120 0 LINE",
"1360 240 LINE",
"1360 1040 LINE",
"1120 1280 LINE"
);
}
);
width = 1440;
}
);
unicode = 004D;
},
{
glyphname = N;
lastChange = "2014-01-05 15:10:29 +0000";
layers = (
{
layerId = "940E2F63-624A-4C3D-A909-721782B4CF41";
name = Regular;
paths = (
{
closed = 1;
nodes = (
"1120 240 LINE",
"840 240 LINE",
"840 1040 LINE",
"600 1280 LINE",
"320 1280 LINE",
"80 1040 LINE",
"80 240 LINE",
"320 0 LINE",
"320 1040 LINE",
"600 1040 LINE",
"600 240 LINE",
"840 0 LINE",
"1120 0 LINE",
"1360 240 LINE",
"1360 1040 LINE",
"1120 1280 LINE"
);
}
);
width = 1440;
}
);
unicode = 004E;
},
{
glyphname = O;
lastChange = "2014-01-05 15:10:29 +0000";
layers = (
{
layerId = "940E2F63-624A-4C3D-A909-721782B4CF41";
name = Regular;
paths = (
{
closed = 1;
nodes = (
"320 1280 LINE",
"80 1040 LINE",
"80 240 LINE",
"320 0 LINE",
"1120 0 LINE",
"1360 240 LINE",
"1360 1040 LINE",
"1120 1280 LINE"
);
},
{
closed = 1;
nodes = (
"1120 240 LINE",
"320 240 LINE",
"320 1040 LINE",
"1120 1040 LINE"
);
}
);
width = 1440;
}
);
unicode = 004F;
},
{
glyphname = P;
lastChange = "2014-01-05 15:10:29 +0000";
layers = (
{
layerId = "940E2F63-624A-4C3D-A909-721782B4CF41";
name = Regular;
paths = (
{
closed = 1;
nodes = (
"320 1280 LINE",
"80 1040 LINE",
"80 240 LINE",
"320 0 LINE",
"320 1040 LINE",
"1120 1040 LINE",
"1120 760 LINE",
"600 760 LINE",
"840 520 LINE",
"1120 520 LINE",
"1360 760 LINE",
"1360 1040 LINE",
"1120 1280 LINE"
);
}
);
width = 1440;
}
);
unicode = 0050;
},
{
glyphname = Q;
lastChange = "2014-01-05 15:10:29 +0000";
layers = (
{
layerId = "940E2F63-624A-4C3D-A909-721782B4CF41";
name = Regular;
paths = (
{
closed = 1;
nodes = (
"320 1280 LINE",
"80 1040 LINE",
"80 240 LINE",
"320 0 LINE",
"1120 0 LINE",
"1360 240 LINE",
"1360 1040 LINE",
"1120 1280 LINE"
);
},
{
closed = 1;
nodes = (
"1120 240 LINE",
"840 240 LINE",
"840 520 LINE",
"600 760 LINE",
"600 240 LINE",
"320 240 LINE",
"320 1040 LINE",
"1120 1040 LINE"
);
}
);
width = 1440;
}
);
unicode = 0051;
},
{
glyphname = R;
lastChange = "2014-01-05 15:10:29 +0000";
layers = (
{
layerId = "940E2F63-624A-4C3D-A909-721782B4CF41";
name = Regular;
paths = (
{
closed = 1;
nodes = (
"320 1280 LINE",
"80 1040 LINE",
"80 240 LINE",
"320 0 LINE",
"320 1040 LINE",
"1120 1040 LINE",
"1120 760 LINE",
"840 760 LINE",
"600 520 LINE",
"600 240 LINE",
"840 0 LINE",
"1120 0 LINE",
"1360 240 LINE",
"840 240 LINE",
"840 520 LINE",
"1120 520 LINE",
"1360 760 LINE",
"1360 1040 LINE",
"1120 1280 LINE"
);
}
);
width = 1440;
}
);
unicode = 0052;
},
{
glyphname = T;
lastChange = "2014-01-05 15:10:29 +0000";
layers = (
{
layerId = "940E2F63-624A-4C3D-A909-721782B4CF41";
name = Regular;
paths = (
{
closed = 1;
nodes = (
"320 1280 LINE",
"80 1040 LINE",
"600 1040 LINE",
"600 240 LINE",
"840 0 LINE",
"840 1040 LINE",
"1360 1040 LINE",
"1120 1280 LINE"
);
}
);
width = 1440;
}
);
unicode = 0054;
},
{
glyphname = V;
lastChange = "2014-01-05 15:10:29 +0000";
layers = (
{
layerId = "940E2F63-624A-4C3D-A909-721782B4CF41";
name = Regular;
paths = (
{
closed = 1;
nodes = (
"1120 760 LINE",
"840 760 LINE",
"600 520 LINE",
"600 240 LINE",
"320 240 LINE",
"320 1280 LINE",
"80 1040 LINE",
"80 240 LINE",
"320 0 LINE",
"600 0 LINE",
"840 240 LINE",
"840 520 LINE",
"1120 520 LINE",
"1360 760 LINE",
"1360 1040 LINE",
"1120 1280 LINE"
);
}
);
width = 1440;
}
);
unicode = 0056;
},
{
glyphname = X;
lastChange = "2014-01-05 15:10:29 +0000";
layers = (
{
layerId = "940E2F63-624A-4C3D-A909-721782B4CF41";
name = Regular;
paths = (
{
closed = 1;
nodes = (
"320 1280 LINE",
"80 1040 LINE",
"80 760 LINE",
"320 520 LINE",
"320 1040 LINE",
"600 1040 LINE",
"600 240 LINE",
"80 240 LINE",
"320 0 LINE",
"1120 0 LINE",
"1360 240 LINE",
"1360 520 LINE",
"1120 760 LINE",
"1120 240 LINE",
"840 240 LINE",
"840 1040 LINE",
"1360 1040 LINE",
"1120 1280 LINE"
);
}
);
width = 1440;
}
);
unicode = 0058;
},
{
glyphname = Y;
lastChange = "2014-01-05 15:10:29 +0000";
layers = (
{
layerId = "940E2F63-624A-4C3D-A909-721782B4CF41";
name = Regular;
paths = (
{
closed = 1;
nodes = (
"1120 760 LINE",
"320 760 LINE",
"320 1280 LINE",
"80 1040 LINE",
"80 760 LINE",
"320 520 LINE",
"1120 520 LINE",
"1120 240 LINE",
"80 240 LINE",
"320 0 LINE",
"1120 0 LINE",
"1360 240 LINE",
"1360 1040 LINE",
"1120 1280 LINE"
);
}
);
width = 1440;
}
);
unicode = 0059;
},
{
glyphname = zero;
lastChange = "2014-01-05 15:10:29 +0000";
layers = (
{
components = (
{
name = O;
transform = "{1, 0, 0, 1, 0, 0}";
}
);
layerId = "940E2F63-624A-4C3D-A909-721782B4CF41";
name = Regular;
paths = (
{
closed = 1;
nodes = (
"600 760 LINE",
"600 520 LINE",
"840 760 LINE"
);
}
);
width = 1440;
}
);
unicode = 0030;
},
{
glyphname = one;
lastChange = "2014-01-05 15:10:29 +0000";
layers = (
{
layerId = "940E2F63-624A-4C3D-A909-721782B4CF41";
name = Regular;
paths = (
{
closed = 1;
nodes = (
"320 1280 LINE",
"80 1040 LINE",
"600 1040 LINE",
"600 240 LINE",
"80 240 LINE",
"320 0 LINE",
"1120 0 LINE",
"1360 240 LINE",
"840 240 LINE",
"840 1040 LINE",
"600 1280 LINE"
);
}
);
width = 1440;
}
);
unicode = 0031;
},
{
glyphname = seven;
lastChange = "2014-01-05 15:10:29 +0000";
layers = (
{
layerId = "940E2F63-624A-4C3D-A909-721782B4CF41";
name = Regular;
paths = (
{
closed = 1;
nodes = (
"320 1280 LINE",
"80 1040 LINE",
"1120 1040 LINE",
"1120 760 LINE",
"840 760 LINE",
"600 520 LINE",
"600 240 LINE",
"840 0 LINE",
"840 520 LINE",
"1120 520 LINE",
"1360 760 LINE",
"1360 1040 LINE",
"1120 1280 LINE"
);
}
);
width = 1440;
}
);
unicode = 0037;
},
{
glyphname = eight;
lastChange = "2014-01-05 15:10:29 +0000";
layers = (
{
layerId = "940E2F63-624A-4C3D-A909-721782B4CF41";
name = Regular;
paths = (
{
closed = 1;
nodes = (
"320 1280 LINE",
"80 1040 LINE",
"80 240 LINE",
"320 0 LINE",
"1120 0 LINE",
"1360 240 LINE",
"1360 1040 LINE",
"1120 1280 LINE"
);
},
{
closed = 1;
nodes = (
"1120 240 LINE",
"320 240 LINE",
"320 520 LINE",
"1120 520 LINE"
);
},
{
closed = 1;
nodes = (
"1120 760 LINE",
"320 760 LINE",
"320 1040 LINE",
"1120 1040 LINE"
);
}
);
width = 1440;
}
);
unicode = 0038;
},
{
glyphname = asterisk;
lastChange = "2014-01-05 15:10:29 +0000";
layers = (
{
components = (
{
name = plus;
transform = "{1, 0, 0, 1, 0, 0}";
}
);
layerId = "940E2F63-624A-4C3D-A909-721782B4CF41";
name = Regular;
paths = (
{
closed = 1;
nodes = (
"1120 1040 LINE",
"1360 1040 LINE",
"1120 1280 LINE"
);
},
{
closed = 1;
nodes = (
"80 240 LINE",
"320 0 LINE",
"320 240 LINE"
);
},
{
closed = 1;
nodes = (
"80 1040 LINE",
"320 1040 LINE",
"320 1280 LINE"
);
},
{
closed = 1;
nodes = (
"1120 240 LINE",
"1120 0 LINE",
"1360 240 LINE"
);
}
);
width = 1440;
}
);
unicode = 002A;
},
{
glyphname = backslash;
lastChange = "2014-01-05 15:10:29 +0000";
layers = (
{
layerId = "940E2F63-624A-4C3D-A909-721782B4CF41";
name = Regular;
paths = (
{
closed = 1;
nodes = (
"1120 0 LINE",
"1360 240 LINE",
"1360 1040 LINE",
"1120 1280 LINE"
);
},
{
closed = 1;
nodes = (
"80 1040 LINE",
"80 240 LINE",
"320 0 LINE",
"320 1280 LINE"
);
},
{
closed = 1;
nodes = (
"600 240 LINE",
"840 0 LINE",
"840 1040 LINE",
"600 1280 LINE"
);
}
);
width = 1440;
}
);
unicode = 005C;
},
{
glyphname = comma;
lastChange = "2014-01-05 15:10:29 +0000";
layers = (
{
layerId = "940E2F63-624A-4C3D-A909-721782B4CF41";
name = Regular;
paths = (
{
closed = 1;
nodes = (
"320 1280 LINE",
"80 1040 LINE",
"80 240 LINE",
"320 0 LINE",
"1120 0 LINE",
"1360 240 LINE",
"1360 1040 LINE",
"1120 1280 LINE"
);
}
);
width = 1440;
}
);
unicode = 002C;
},
{
glyphname = ellipsis;
lastChange = "2014-01-05 15:10:29 +0000";
layers = (
{
layerId = "940E2F63-624A-4C3D-A909-721782B4CF41";
name = Regular;
paths = (
{
closed = 1;
nodes = (
"320 1280 LINE",
"80 1040 LINE",
"1360 1040 LINE",
"1120 1280 LINE"
);
},
{
closed = 1;
nodes = (
"80 240 LINE",
"320 0 LINE",
"320 240 LINE"
);
},
{
closed = 1;
nodes = (
"600 240 LINE",
"840 0 LINE",
"840 240 LINE"
);
},
{
closed = 1;
nodes = (
"1120 240 LINE",
"1120 0 LINE",
"1360 240 LINE"
);
},
{
closed = 1;
nodes = (
"320 760 LINE",
"80 520 LINE",
"1120 520 LINE",
"1360 760 LINE"
);
}
);
width = 1440;
}
);
unicode = 2026;
},
{
glyphname = exclam;
lastChange = "2014-01-05 15:10:29 +0000";
layers = (
{
layerId = "940E2F63-624A-4C3D-A909-721782B4CF41";
name = Regular;
paths = (
{
closed = 1;
nodes = (
"1120 520 LINE",
"1360 760 LINE",
"1360 1040 LINE",
"1120 1280 LINE"
);
},
{
closed = 1;
nodes = (
"80 240 LINE",
"320 0 LINE",
"320 240 LINE"
);
},
{
closed = 1;
nodes = (
"600 240 LINE",
"840 0 LINE",
"840 240 LINE"
);
},
{
closed = 1;
nodes = (
"80 1040 LINE",
"80 760 LINE",
"320 520 LINE",
"320 1280 LINE"
);
},
{
closed = 1;
nodes = (
"1120 240 LINE",
"1120 0 LINE",
"1360 240 LINE"
);
},
{
closed = 1;
nodes = (
"600 760 LINE",
"840 520 LINE",
"840 1040 LINE",
"600 1280 LINE"
);
}
);
width = 1440;
}
);
unicode = 0021;
},
{
glyphname = exclamdown;
lastChange = "2014-01-05 15:10:29 +0000";
layers = (
{
layerId = "940E2F63-624A-4C3D-A909-721782B4CF41";
name = Regular;
paths = (
{
closed = 1;
nodes = (
"1120 0 LINE",
"1360 240 LINE",
"1360 520 LINE",
"1120 760 LINE"
);
},
{
closed = 1;
nodes = (
"80 520 LINE",
"80 240 LINE",
"320 0 LINE",
"320 760 LINE"
);
},
{
closed = 1;
nodes = (
"600 240 LINE",
"840 0 LINE",
"840 520 LINE",
"600 760 LINE"
);
},
{
closed = 1;
nodes = (
"80 1040 LINE",
"320 1040 LINE",
"320 1280 LINE"
);
},
{
closed = 1;
nodes = (
"600 1040 LINE",
"840 1040 LINE",
"600 1280 LINE"
);
},
{
closed = 1;
nodes = (
"1120 1040 LINE",
"1360 1040 LINE",
"1120 1280 LINE"
);
}
);
width = 1440;
}
);
unicode = 00A1;
},
{
glyphname = numbersign;
lastChange = "2014-01-05 15:10:29 +0000";
layers = (
{
layerId = "940E2F63-624A-4C3D-A909-721782B4CF41";
name = Regular;
paths = (
{
closed = 1;
nodes = (
"320 1280 LINE",
"80 1040 LINE",
"80 240 LINE",
"320 0 LINE",
"1120 0 LINE",
"1360 240 LINE",
"1360 1040 LINE",
"1120 1280 LINE"
);
},
{
closed = 1;
nodes = (
"600 240 LINE",
"320 240 LINE",
"320 520 LINE",
"600 520 LINE"
);
},
{
closed = 1;
nodes = (
"600 760 LINE",
"320 760 LINE",
"320 1040 LINE",
"600 1040 LINE"
);
},
{
closed = 1;
nodes = (
"1120 240 LINE",
"840 240 LINE",
"840 520 LINE",
"1120 520 LINE"
);
},
{
closed = 1;
nodes = (
"1120 760 LINE",
"840 760 LINE",
"840 1040 LINE",
"1120 1040 LINE"
);
}
);
width = 1440;
}
);
unicode = 0023;
},
{
glyphname = question;
lastChange = "2014-01-05 15:10:29 +0000";
layers = (
{
layerId = "940E2F63-624A-4C3D-A909-721782B4CF41";
name = Regular;
paths = (
{
closed = 1;
nodes = (
"320 1280 LINE",
"80 1040 LINE",
"1120 1040 LINE",
"1120 760 LINE",
"840 760 LINE",
"600 520 LINE",
"1120 520 LINE",
"1360 760 LINE",
"1360 1040 LINE",
"1120 1280 LINE"
);
},
{
closed = 1;
nodes = (
"600 240 LINE",
"840 0 LINE",
"840 240 LINE"
);
}
);
width = 1440;
}
);
unicode = 003F;
},
{
glyphname = braceleft;
lastChange = "2014-01-05 15:10:29 +0000";
layers = (
{
layerId = "940E2F63-624A-4C3D-A909-721782B4CF41";
name = Regular;
paths = (
{
closed = 1;
nodes = (
"840 1280 LINE",
"600 1040 LINE",
"600 760 LINE",
"320 760 LINE",
"80 520 LINE",
"600 520 LINE",
"600 240 LINE",
"840 0 LINE",
"1120 0 LINE",
"1360 240 LINE",
"840 240 LINE",
"840 1040 LINE",
"1360 1040 LINE",
"1120 1280 LINE"
);
}
);
width = 1440;
}
);
unicode = 007B;
},
{
color = 0;
glyphname = dollar;
lastChange = "2014-01-05 15:10:29 +0000";
layers = (
{
components = (
{
name = S;
transform = "{1, 0, 0, 1, 0, 0}";
}
);
layerId = "940E2F63-624A-4C3D-A909-721782B4CF41";
name = Regular;
paths = (
{
closed = 1;
nodes = (
"600 1280 LINE",
"600 0 LINE",
"840 0 LINE",
"840 1280 LINE"
);
}
);
width = 1440;
}
);
unicode = 0024;
},
{
color = 0;
glyphname = euro;
lastChange = "2014-01-05 15:10:29 +0000";
layers = (
{
components = (
{
name = braceleft;
transform = "{1, 0, 0, 1, 0, 0}";
}
);
layerId = "940E2F63-624A-4C3D-A909-721782B4CF41";
name = Regular;
paths = (
{
closed = 1;
nodes = (
"431 760 LINE",
"431 520 LINE",
"1120 520 LINE",
"1360 760 LINE"
);
}
);
width = 1440;
}
);
unicode = 20AC;
},
{
glyphname = divide;
lastChange = "2014-01-05 15:10:29 +0000";
layers = (
{
layerId = "940E2F63-624A-4C3D-A909-721782B4CF41";
name = Regular;
paths = (
{
closed = 1;
nodes = (
"320 760 LINE",
"80 520 LINE",
"1120 520 LINE",
"1360 760 LINE"
);
},
{
closed = 1;
nodes = (
"600 240 LINE",
"600 0 LINE",
"840 240 LINE"
);
},
{
closed = 1;
nodes = (
"600 1040 LINE",
"840 1040 LINE",
"840 1280 LINE"
);
}
);
width = 1440;
}
);
unicode = 00F7;
},
{
color = 0;
glyphname = percent;
lastChange = "2014-01-05 15:10:29 +0000";
layers = (
{
layerId = "940E2F63-624A-4C3D-A909-721782B4CF41";
name = Regular;
paths = (
{
closed = 1;
nodes = (
"1120 760 LINE",
"320 760 LINE",
"80 520 LINE",
"80 240 LINE",
"320 0 LINE",
"320 520 LINE",
"1120 520 LINE",
"1360 760 LINE",
"1360 1040 LINE",
"1120 1280 LINE"
);
},
{
closed = 1;
nodes = (
"600 240 LINE",
"840 0 LINE",
"1120 0 LINE",
"1360 240 LINE"
);
},
{
closed = 1;
nodes = (
"320 1280 LINE",
"80 1040 LINE",
"840 1040 LINE",
"600 1280 LINE"
);
}
);
width = 1440;
}
);
unicode = 0025;
},
{
glyphname = plus;
lastChange = "2014-01-05 15:10:29 +0000";
layers = (
{
layerId = "940E2F63-624A-4C3D-A909-721782B4CF41";
name = Regular;
paths = (
{
closed = 1;
nodes = (
"600 760 LINE",
"320 760 LINE",
"80 520 LINE",
"600 520 LINE",
"600 240 LINE",
"840 0 LINE",
"840 520 LINE",
"1120 520 LINE",
"1360 760 LINE",
"840 760 LINE",
"840 1040 LINE",
"600 1280 LINE"
);
}
);
width = 1440;
}
);
unicode = 002B;
},
{
glyphname = ampersand;
lastChange = "2014-01-05 15:10:29 +0000";
layers = (
{
layerId = "940E2F63-624A-4C3D-A909-721782B4CF41";
name = Regular;
paths = (
{
closed = 1;
nodes = (
"840 1280 LINE",
"600 1040 LINE",
"600 760 LINE",
"320 760 LINE",
"80 520 LINE",
"80 240 LINE",
"320 0 LINE",
"1120 0 LINE",
"1360 240 LINE",
"320 240 LINE",
"320 520 LINE",
"1120 520 LINE",
"1360 760 LINE",
"1360 1040 LINE",
"1120 1280 LINE"
);
},
{
closed = 1;
nodes = (
"1120 760 LINE",
"840 760 LINE",
"840 1040 LINE",
"1120 1040 LINE"
);
}
);
width = 1440;
}
);
unicode = 0026;
},
{
glyphname = degree;
lastChange = "2014-01-05 15:10:29 +0000";
layers = (
{
layerId = "940E2F63-624A-4C3D-A909-721782B4CF41";
name = Regular;
paths = (
{
closed = 1;
nodes = (
"320 1280 LINE",
"80 1040 LINE",
"80 760 LINE",
"320 520 LINE",
"600 520 LINE",
"840 760 LINE",
"840 1040 LINE",
"600 1280 LINE"
);
},
{
closed = 1;
nodes = (
"1120 240 LINE",
"600 240 LINE",
"840 0 LINE",
"1120 0 LINE",
"1360 240 LINE",
"1360 520 LINE",
"1120 760 LINE"
);
},
{
closed = 1;
nodes = (
"600 760 LINE",
"320 760 LINE",
"320 1040 LINE",
"600 1040 LINE"
);
}
);
width = 1440;
}
);
unicode = 00B0;
},
